<svg width="192" height="192" viewBox="0 0 192 192" fill="none" xmlns="http://www.w3.org/2000/svg">
<g clip-path="url(#clip0_1_2)">
<path d="M45.2571 192C39.3126 192.006 33.4257 190.835 27.936 188.555C22.4424 186.285 17.4523 182.951 13.2535 178.744C9.04619 174.545 5.7117 169.555 3.44229 164.061C1.1707 158.59 0.000929389 152.724 3.23307e-06 146.8C-0.00810001 137.848 2.64714 129.096 7.62789 121.657C12.5941 114.208 19.6644 108.406 27.9387 104.988C33.4276 102.708 39.3136 101.537 45.2571 101.543C48.2207 101.544 51.177 101.835 54.0837 102.413C62.8653 104.152 70.9313 108.463 77.2553 114.8C83.5914 121.124 87.9031 129.19 89.6421 137.971C91.3963 146.75 90.4998 155.851 87.0665 164.119C83.6481 172.393 77.8448 179.464 70.3954 184.43C62.9516 189.389 54.2017 192.024 45.2571 192ZM24.6857 141.315V152.286H39.7714V167.372H50.7429V152.286H65.8286V141.315H50.7429V126.229H39.7714V141.315H24.6857Z" fill="white"/>
<path d="M45.2572 90.5143C39.3127 90.5205 33.4257 89.3497 27.936 87.0693C22.4424 84.7997 17.4524 81.4653 13.2535 77.2581C9.04622 73.0593 5.71173 68.0692 3.44231 62.5756C1.16328 57.0865 -0.00663578 51.2006 2.83104e-05 45.2572C-0.00807494 36.3048 2.64716 27.5523 7.62791 20.1134C12.5941 12.6648 19.6644 6.86249 27.9388 3.44505C33.4276 1.16494 39.3136 -0.00591708 45.2572 2.24849e-05C48.2207 0.000814501 51.177 0.292035 54.0837 0.869508C62.8654 2.60828 70.9313 6.92005 77.2553 13.2563C83.5914 19.5804 87.9032 27.6463 89.6421 36.4279C91.3963 45.2063 90.4998 54.3081 87.0665 62.5756C83.6471 70.8495 77.844 77.9195 70.3955 82.8864C62.9581 87.8661 54.2077 90.5213 45.2572 90.5143ZM24.6857 39.7714V50.7429H65.8286V39.7714H24.6857Z" fill="white"/>
<path d="M146.743 90.5143C140.798 90.5205 134.911 89.3496 129.422 87.0692C123.928 84.7997 118.938 81.4652 114.739 77.2581C110.532 73.0593 107.197 68.0692 104.928 62.5755C102.649 57.0865 101.479 51.2005 101.486 45.2571C101.478 36.3047 104.133 27.5523 109.114 20.1134C114.08 12.6648 121.15 6.86247 129.424 3.44503C134.913 1.16491 140.799 -0.00593949 146.743 7.3574e-08C149.706 0.00079209 152.663 0.292012 155.569 0.869486C164.351 2.60826 172.417 6.92003 178.741 13.2562C185.077 19.5804 189.389 27.6463 191.128 36.4279C192.882 45.2063 191.985 54.3081 188.552 62.5755C185.133 70.8495 179.33 77.9195 171.881 82.8864C164.444 87.8661 155.693 90.5213 146.743 90.5143ZM146.743 53.0112L157.41 63.6809L165.169 55.9186L154.5 45.2489L165.167 34.5847L157.41 26.8251L146.743 37.4921L136.076 26.8251L128.316 34.5847L138.983 45.2517L128.314 55.9186L136.07 63.6754L146.737 53.0112H146.743Z" fill="white"/>
<path d="M146.747 192.054C140.804 192.06 134.918 190.889 129.429 188.609C123.934 186.34 118.943 183.006 114.744 178.798C110.537 174.599 107.203 169.609 104.935 164.116C102.655 158.627 101.485 152.741 101.49 146.797C101.481 137.845 104.136 129.092 109.118 121.653C114.08 114.207 121.146 108.405 129.415 104.985C134.903 102.705 140.788 101.534 146.731 101.54C149.696 101.54 152.654 101.832 155.563 102.41C164.344 104.147 172.411 108.458 178.734 114.794C185.071 121.117 189.381 129.183 191.118 137.965C192.876 146.744 191.98 155.847 188.546 164.116C185.125 172.384 179.323 179.45 171.877 184.413C164.444 189.396 155.696 192.056 146.747 192.054ZM126.113 150.382V159.749H167.382V150.382H126.113ZM126.113 133.969V143.338H167.382V133.969H126.113Z" fill="white"/>
</g>
<defs>
<clipPath id="clip0_1_2">
<rect width="192" height="192" fill="white"/>
</clipPath>
</defs>
</svg>
