<svg width="192" height="192" viewBox="0 0 192 192" fill="none" xmlns="http://www.w3.org/2000/svg">
<g clip-path="url(#clip0_1_2)">
<mask id="path-1-inside-1_1_2" fill="white">
<path fill-rule="evenodd" clip-rule="evenodd" d="M72.8068 189.179V125.338H52.9924V95.9996H72.8068V83.366C72.8068 50.6872 87.5904 35.5576 119.656 35.5576C125.72 35.5576 136.204 36.748 140.504 37.9384V64.5116C138.24 64.2812 134.284 64.166 129.408 64.166C113.664 64.166 107.597 70.118 107.597 85.6316V95.9996H138.972L133.592 125.338H107.635V191.302C107.432 191.327 107.228 191.351 107.024 191.374C154.852 185.906 192 145.291 192 96C192 42.9808 149.02 0 96 0C42.9808 0 0 42.9808 0 96C0 141.022 30.9927 178.806 72.8068 189.179Z"/>
</mask>
<path fill-rule="evenodd" clip-rule="evenodd" d="M72.8068 189.179V125.338H52.9924V95.9996H72.8068V83.366C72.8068 50.6872 87.5904 35.5576 119.656 35.5576C125.72 35.5576 136.204 36.748 140.504 37.9384V64.5116C138.24 64.2812 134.284 64.166 129.408 64.166C113.664 64.166 107.597 70.118 107.597 85.6316V95.9996H138.972L133.592 125.338H107.635V191.302C107.432 191.327 107.228 191.351 107.024 191.374C154.852 185.906 192 145.291 192 96C192 42.9808 149.02 0 96 0C42.9808 0 0 42.9808 0 96C0 141.022 30.9927 178.806 72.8068 189.179Z" fill="black"/>
<path d="M72.8068 189.179L72.566 190.15L73.8068 190.458V189.179H72.8068ZM72.8068 125.338H73.8068V124.338H72.8068V125.338ZM52.9924 125.338H51.9924V126.338H52.9924V125.338ZM52.9924 95.9996V94.9996H51.9924V95.9996H52.9924ZM72.8068 95.9996V96.9996H73.8068V95.9996H72.8068ZM140.504 37.9384H141.504V37.1776L140.771 36.9746L140.504 37.9384ZM140.504 64.5116L140.403 65.5065L141.504 65.6185V64.5116H140.504ZM107.597 95.9996H106.597V96.9996H107.597V95.9996ZM138.972 95.9996L139.956 96.18L140.172 94.9996H138.972V95.9996ZM133.592 125.338V126.338H134.425L134.576 125.518L133.592 125.338ZM107.635 125.338V124.338H106.635V125.338H107.635ZM107.635 191.302L107.755 192.295L108.635 192.188V191.302H107.635ZM73.8068 189.179V125.338H71.8068V189.179H73.8068ZM72.8068 124.338H52.9924V126.338H72.8068V124.338ZM53.9924 125.338V95.9996H51.9924V125.338H53.9924ZM52.9924 96.9996H72.8068V94.9996H52.9924V96.9996ZM73.8068 95.9996V83.366H71.8068V95.9996H73.8068ZM73.8068 83.366C73.8068 67.1559 77.4756 55.5103 84.9213 47.9069C92.3627 40.3079 103.763 36.5576 119.656 36.5576V34.5576C103.484 34.5576 91.4591 38.3721 83.4923 46.5076C75.5298 54.6387 71.8068 66.8973 71.8068 83.366H73.8068ZM119.656 36.5576C125.661 36.5576 136.05 37.7429 140.237 38.9022L140.771 36.9746C136.358 35.7531 125.779 34.5576 119.656 34.5576V36.5576ZM139.504 37.9384V64.5116H141.504V37.9384H139.504ZM140.605 63.5167C138.286 63.2807 134.286 63.166 129.408 63.166V65.166C134.282 65.166 138.194 65.2817 140.403 65.5065L140.605 63.5167ZM129.408 63.166C121.45 63.166 115.666 64.6622 111.897 68.3682C108.125 72.0785 106.597 77.7823 106.597 85.6316H108.597C108.597 77.9674 110.103 72.9384 113.3 69.7942C116.501 66.6458 121.622 65.166 129.408 65.166V63.166ZM106.597 85.6316V95.9996H108.597V85.6316H106.597ZM107.597 96.9996H138.972V94.9996H107.597V96.9996ZM137.988 95.8192L132.608 125.158L134.576 125.518L139.956 96.18L137.988 95.8192ZM133.592 124.338H107.635V126.338H133.592V124.338ZM106.635 125.338V191.302H108.635V125.338H106.635ZM107.515 190.309C107.313 190.334 107.112 190.357 106.91 190.38L107.137 192.368C107.344 192.344 107.55 192.32 107.755 192.295L107.515 190.309ZM107.137 192.368C155.464 186.843 193 145.805 193 96H191C191 144.777 154.239 184.97 106.91 190.38L107.137 192.368ZM193 96C193 42.4285 149.572 -1 96 -1V1C148.468 1 191 43.5331 191 96H193ZM96 -1C42.4285 -1 -1 42.4285 -1 96H1C1 43.5331 43.5331 1 96 1V-1ZM-1 96C-1 141.492 30.3164 179.668 72.566 190.15L73.0476 188.209C31.6689 177.943 1 140.552 1 96H-1Z" fill="black" mask="url(#path-1-inside-1_1_2)"/>
</g>
<defs>
<clipPath id="clip0_1_2">
<rect width="192" height="192" fill="white"/>
</clipPath>
</defs>
</svg>
