<svg width="192" height="192" viewBox="0 0 192 192" fill="none" xmlns="http://www.w3.org/2000/svg">
<path fill-rule="evenodd" clip-rule="evenodd" d="M67.7867 52.8213L67.872 49.664C67.872 34.2613 80.3733 21.6747 95.7333 21.6747C111.093 21.6747 123.595 34.2613 123.595 49.664L123.68 52.8213H67.7867ZM145.184 52.8213V49.664C145.184 22.272 122.997 0 95.7333 0C68.4693 0 46.2827 22.272 46.2827 49.664V52.8213H12.4053C7.75467 52.8213 4 56.576 4 61.2267C4 61.568 4.04267 61.952 4.08534 62.2933L15.904 155.307C18.08 176.171 35.616 192 56.48 192H134.987C155.851 192 173.387 176.171 175.563 155.307L187.381 62.2933C187.979 57.6853 184.736 53.4613 180.128 52.864C179.787 52.8213 179.445 52.8213 179.061 52.8213H145.184Z" fill="black"/>
</svg>
