<svg width="192" height="192" viewBox="0 0 192 192" fill="none" xmlns="http://www.w3.org/2000/svg">
<path fill-rule="evenodd" clip-rule="evenodd" d="M96 41.8235C73.5682 41.8235 55.7892 43.6983 42.6577 45.8743C29.1573 48.1366 19.6876 60.0352 19.2335 75.234L19.2332 75.2409C19.0078 82.6038 18.8235 90.0885 18.8235 96.4118C18.8235 102.735 19.0078 110.22 19.2332 117.583L19.2335 117.589C19.6876 132.788 29.1567 144.686 42.6563 146.949C55.7879 149.125 73.5674 151 96 151C118.433 151 136.212 149.125 149.344 146.949C162.843 144.686 172.312 132.788 172.767 117.589L172.767 117.562L172.768 117.535C173.029 110.247 173.176 102.756 173.176 96.4118C173.176 90.0674 173.029 82.5764 172.768 75.2889L172.767 75.2615L172.767 75.234C172.312 60.0352 162.843 48.1366 149.342 45.8743C136.211 43.6983 118.432 41.8235 96 41.8235ZM39.5716 27.3055C53.6958 24.9645 72.507 23 96 23C119.493 23 138.304 24.9645 152.428 27.3055L152.443 27.3079C176.276 31.2961 190.895 52.0592 191.581 74.6454C191.847 82.1067 192 89.8139 192 96.4118C192 103.01 191.847 110.717 191.581 118.178C190.895 140.764 176.276 161.527 152.443 165.516L152.428 165.518C138.304 167.859 119.493 169.824 96 169.824C72.507 169.824 53.6958 167.859 39.5716 165.518L39.5572 165.516C15.7162 161.526 1.09495 140.75 0.418418 118.155C0.192096 110.761 0 103.038 0 96.4118C0 89.7845 0.192158 82.0597 0.418527 74.665C1.09648 52.0712 15.7174 31.2972 39.5572 27.3079L39.5716 27.3055Z" fill="black"/>
<path d="M50.8235 82.6329C50.8235 72.9576 60.4612 66.9341 68.2165 71.7529L90.2024 85.5318C97.92 90.3506 97.92 102.473 90.2024 107.292L68.2165 121.071C60.4612 125.889 50.8235 119.866 50.8235 110.191V82.6329Z" fill="black"/>
<path d="M77.1765 76.7223C77.1765 62.9059 90.8424 54.2847 101.798 61.2118L132.969 80.8635C143.925 87.7906 143.925 105.033 132.969 111.96L101.798 131.612C90.8424 138.539 77.1765 129.918 77.1765 116.101V76.7223Z" fill="black" fill-opacity="0.5"/>
</svg>
