<svg width="192" height="192" viewBox="0 0 192 192" fill="none" xmlns="http://www.w3.org/2000/svg">
<path fill-rule="evenodd" clip-rule="evenodd" d="M76.6963 131.248C102.759 141.779 128.786 146.349 151.168 145.444C137.213 161.814 116.438 172.192 93.2428 172.192C51.2172 172.192 17.1485 138.123 17.1485 96.0943C17.1485 95.2849 17.1591 94.4754 17.1839 93.6694C32.3447 108.318 52.7655 121.58 76.6963 131.248Z" fill="black"/>
<path d="M111.557 51.1348C163.869 70.1734 199.309 104.748 190.716 128.357C182.123 151.966 132.752 155.67 80.4397 136.628C28.1312 117.59 -7.309 83.0155 1.28418 59.4063C9.87735 35.7972 59.2484 32.0927 111.557 51.1348ZM105.784 64.546C82.7797 56.1719 59.92 52.5523 42.0903 54.0157C27.0178 55.2493 18.2938 59.7704 16.3178 65.2034C14.3383 70.6365 18.117 79.7069 28.87 90.3432C41.5848 102.924 61.4258 114.847 84.4305 123.217C107.432 131.591 130.295 135.211 148.125 133.747C163.194 132.51 171.921 127.993 173.897 122.56C175.877 117.127 172.098 108.056 161.345 97.4199C148.63 84.8394 128.789 72.9164 105.784 64.546Z" fill="black"/>
<path fill-rule="evenodd" clip-rule="evenodd" d="M93.2428 20C135.268 20 169.341 54.0687 169.341 96.0943C169.341 99.3534 169.991 108.198 165.915 112.687C161.702 117.332 152.702 117.568 149.592 117.745C131.016 118.802 109.553 115.433 88.0254 107.169C64.6531 98.1976 45.1974 84.9914 31.9418 70.4102C30.9131 69.2791 27.8096 65.0196 27.8096 60.7142C27.8096 56.4088 31.6943 51.255 33.3734 49.12C47.3042 31.3892 68.9444 20 93.2428 20Z" fill="black"/>
</svg>
