<svg width="192" height="192" viewBox="0 0 192 192" fill="none" xmlns="http://www.w3.org/2000/svg">
<path d="M62.9191 95.9531C62.9191 91.6462 63.7674 87.3815 65.4156 83.4025C67.0638 79.4234 69.4796 75.808 72.525 72.7625C75.5704 69.7171 79.1859 67.3013 83.1649 65.6531C87.144 64.0049 91.4087 63.1566 95.7156 63.1566C100.023 63.1566 104.287 64.0049 108.266 65.6531C112.245 67.3013 115.861 69.7171 118.906 72.7625C121.952 75.808 124.367 79.4234 126.016 83.4025C127.664 87.3815 128.512 91.6462 128.512 95.9531C128.512 100.26 127.664 104.525 126.016 108.504C124.367 112.483 121.952 116.098 118.906 119.144C115.861 122.189 112.245 124.605 108.266 126.253C104.287 127.901 100.023 128.75 95.7156 128.75C91.4087 128.75 87.144 127.901 83.1649 126.253C79.1859 124.605 75.5704 122.189 72.525 119.144C69.4796 116.098 67.0638 112.483 65.4156 108.504C63.7674 104.525 62.9191 100.26 62.9191 95.9531Z" fill="black"/>
<path d="M113.051 192H78.3803C71.4462 192 65.6365 186.94 64.7932 180.1L62.2632 162.389C59.7332 161.078 57.2968 159.672 54.8605 158.079L37.9938 164.826C31.4345 167.262 24.2193 164.545 21.0333 158.735L3.88543 129.031C0.605783 122.846 2.01135 115.537 7.25878 111.414L21.5955 100.264C21.5018 98.858 21.4081 97.4524 21.4081 95.9531C21.4081 94.5476 21.5018 93.0483 21.5955 91.6427L7.35249 80.4919C1.82394 76.2753 0.418375 68.6852 3.88543 62.8755L21.2207 32.9839C24.4067 27.1742 31.6219 24.5505 37.9938 27.0805L54.9542 33.9209C57.3906 32.328 59.8269 30.9224 62.2632 29.6105L64.7932 11.713C65.6365 5.15373 71.4462 0 78.2866 0H112.957C119.891 0 125.701 5.06003 126.544 11.9004L129.074 29.6105C131.604 30.9224 134.041 32.328 136.477 33.9209L153.344 27.1742C159.997 24.7379 167.212 27.4553 170.398 33.265L187.639 63.063C191.013 69.2474 189.514 76.5564 184.266 80.6793L170.023 91.8302C170.117 93.2357 170.21 94.6413 170.21 96.1406C170.21 97.6398 170.117 99.0454 170.023 100.451L184.266 111.602C189.514 115.818 191.013 123.127 187.733 129.031L170.304 159.204C167.118 165.013 159.903 167.637 153.437 165.107L136.571 158.36C134.134 159.953 131.698 161.359 129.262 162.671L126.732 180.568C125.795 186.94 119.985 192 113.051 192ZM108.085 177.663C108.085 177.757 108.085 177.757 108.085 177.851V177.663ZM83.3466 177.476V177.663C83.4403 177.663 83.4403 177.57 83.3466 177.476ZM82.7844 173.259H108.647L112.114 149.365L117.08 147.303C121.203 145.616 125.326 143.18 129.637 139.994L133.853 136.808L156.155 145.804L169.086 123.315L150.064 108.51L150.72 103.262C151.001 100.826 151.282 98.4832 151.282 95.9531C151.282 93.4231 151.001 90.9868 150.72 88.6442L150.064 83.3968L169.086 68.5915L156.061 46.1025L133.666 55.0981L129.449 51.8184C125.514 48.8199 121.297 46.3836 116.986 44.6032L112.114 42.5417L108.647 18.6471H82.7844L79.3173 42.5417L74.351 44.5095C70.228 46.2899 66.105 48.6325 61.7947 51.9122L57.578 55.0044L35.2764 46.1025L22.2515 68.4978L41.2734 83.3031L40.6175 88.5505C40.3364 90.9868 40.0553 93.5168 40.0553 95.9531C40.0553 98.3895 40.2427 100.919 40.6175 103.262L41.2734 108.51L22.2515 123.315L35.1826 145.804L57.578 136.808L61.7947 140.088C65.8239 143.18 69.8532 145.523 74.2573 147.303L79.2236 149.365L82.7844 173.259ZM154 149.552C154 149.646 153.906 149.739 153.906 149.833L154 149.552ZM37.3378 149.458L37.4316 149.646C37.4316 149.552 37.3378 149.458 37.3378 149.458ZM154 42.2606C154 42.3543 154.093 42.448 154.093 42.448L154 42.2606ZM37.5253 42.0732L37.4316 42.2606C37.4316 42.2606 37.5253 42.1669 37.5253 42.0732ZM107.991 14.243C107.991 14.3367 107.991 14.3367 107.991 14.4305V14.243ZM83.4403 14.0556V14.243C83.4403 14.1493 83.4403 14.1493 83.4403 14.0556Z" fill="black"/>
</svg>
