<svg width="192" height="192" viewBox="0 0 192 192" fill="none" xmlns="http://www.w3.org/2000/svg">
<path d="M10.1053 94.4211H30.3158C36.3789 94.4211 40.4211 90.379 40.4211 84.3158V64.1053C40.4211 58.0421 36.3789 54 30.3158 54H10.1053C5.05263 54 0 59.0526 0 64.1053V84.3158C0 90.379 5.05263 94.4211 10.1053 94.4211Z" fill="black"/>
<path d="M5.05263 123.726C5.05263 119.706 6.64962 115.851 9.49228 113.008C12.3349 110.165 16.1904 108.568 20.2105 108.568C24.2307 108.568 28.0861 110.165 30.9288 113.008C33.7714 115.851 35.3684 119.706 35.3684 123.726C35.3684 127.746 33.7714 131.602 30.9288 134.445C28.0861 137.287 24.2307 138.884 20.2105 138.884C16.1904 138.884 12.3349 137.287 9.49228 134.445C6.64962 131.602 5.05263 127.746 5.05263 123.726Z" fill="black"/>
<path d="M50.5263 123.726C50.5263 129.789 54.5684 133.832 60.6316 133.832H181.895C186.947 133.832 192 129.789 192 123.726C192 117.663 186.947 113.621 181.895 113.621H60.6316C54.5684 113.621 50.5263 117.663 50.5263 123.726Z" fill="black"/>
<path d="M50.5263 74.2105C50.5263 80.2737 54.5684 84.3158 60.6316 84.3158H181.895C186.947 84.3158 192 80.2737 192 74.2105C192 68.1474 186.947 64.1053 181.895 64.1053H60.6316C54.5684 64.1053 50.5263 69.1579 50.5263 74.2105Z" fill="black"/>
</svg>
