<svg width="192" height="192" viewBox="0 0 192 192" fill="none" xmlns="http://www.w3.org/2000/svg">
<g clip-path="url(#clip0_2_2)">
<path d="M142.073 88.9687C141.221 88.5899 140.416 88.2111 139.564 87.8323C138.096 60.512 123.086 44.8868 97.944 44.7448C97.8493 44.7448 97.7073 44.7448 97.6126 44.7448C82.5556 44.7448 70.0555 51.1369 62.3376 62.7847L76.1635 72.2545C81.9401 63.5423 90.9364 61.6957 97.6126 61.6957C97.7073 61.6957 97.7546 61.6957 97.8493 61.6957C106.135 61.743 112.385 64.1578 116.41 68.8454C119.346 72.2545 121.334 76.942 122.281 82.908C114.942 81.6769 106.988 81.2982 98.5122 81.7716C74.601 83.1448 59.2126 97.018 60.2543 116.336C60.7751 126.138 65.6994 134.566 74.0328 140.058C81.0878 144.698 90.2262 146.971 99.6959 146.45C112.196 145.787 121.997 141.005 128.863 132.34C134.071 125.759 137.338 117.189 138.806 106.393C144.772 109.992 149.176 114.679 151.638 120.361C155.804 130.02 156.041 145.835 143.068 158.761C131.704 170.077 118.02 174.954 97.3758 175.096C74.4589 174.907 57.1292 167.615 45.9075 153.363C35.3487 140.011 29.9036 120.74 29.7142 96.0237C29.9036 71.3549 35.3487 52.0365 45.9075 38.6841C57.1766 24.4321 74.5063 17.093 97.3758 16.9509C120.435 17.1403 138.049 24.4794 149.744 38.7788C155.473 45.7864 159.782 54.6407 162.67 64.9628L178.863 60.654C175.407 47.9645 169.962 37.0269 162.575 27.9832C147.566 9.61184 125.643 0.189396 97.4232 0H97.3285C69.1559 0.189396 47.47 9.65919 32.8866 28.0779C19.913 44.508 13.2367 67.3302 13 95.929V96.071C13.2367 124.67 19.913 147.539 32.8866 163.922C47.47 182.341 69.1085 191.811 97.3285 192H97.4232C122.471 191.811 140.132 185.276 154.715 170.788C173.75 151.848 173.182 128.079 166.884 113.495C162.386 103.031 153.816 94.5559 142.073 88.9213V88.9687ZM98.7963 129.499C88.3322 130.068 77.4419 125.38 76.8737 115.342C76.495 107.908 82.1768 99.5749 99.4118 98.6279C101.4 98.5332 103.342 98.4385 105.236 98.4385C111.486 98.4385 117.357 99.054 122.66 100.19C120.672 124.907 109.024 128.884 98.749 129.452L98.7963 129.499Z" fill="white"/>
</g>
<defs>
<clipPath id="clip0_2_2">
<rect width="192" height="192" fill="white"/>
</clipPath>
</defs>
</svg>
