<svg width="192" height="192" viewBox="0 0 192 192" fill="none" xmlns="http://www.w3.org/2000/svg">
<path fill-rule="evenodd" clip-rule="evenodd" d="M110.402 8.37693H135.129C137.512 20.9531 145.151 31.7444 155.733 38.4866C155.736 38.4909 155.74 38.4952 155.743 38.4996C163.11 43.1912 171.893 45.9284 181.321 45.9284V53.2764L181.322 78.9319C163.808 78.9319 147.579 73.4564 134.332 64.1638V131.244C134.332 164.745 106.445 192 72.1651 192C58.9194 192 46.6359 187.917 36.5388 180.988C36.5334 180.983 36.528 180.977 36.5216 180.971C20.4998 169.97 10 151.786 10 131.238C10 97.7374 37.8875 70.4816 72.1672 70.4816C75.0114 70.4816 77.7994 70.7105 80.5442 71.0744V78.8941L80.5431 104.779C77.8912 103.968 75.088 103.496 72.1651 103.496C56.5104 103.496 43.7744 115.945 43.7744 131.244C43.7744 141.898 49.9594 151.155 58.9961 155.803C62.9362 157.829 67.4119 158.991 72.164 158.991C87.458 158.991 99.9338 147.102 100.502 132.288L100.556 0H134.331C134.331 2.86142 134.614 5.65804 135.129 8.37693H110.402Z" fill="white"/>
</svg>
