<svg width="192" height="192" viewBox="0 0 192 192" fill="none" xmlns="http://www.w3.org/2000/svg">
<g clip-path="url(#clip0_1_2)">
<path fill-rule="evenodd" clip-rule="evenodd" d="M163.238 27.9019C145.277 9.91875 121.392 0.00868542 95.9392 0C43.4966 0 0.816422 42.6758 0.799051 95.1358C0.776077 111.83 5.15605 128.236 13.4972 142.697L0 192L50.4363 178.772C64.3849 186.371 80.016 190.351 95.9001 190.35H95.9435C148.373 190.35 191.062 147.67 191.079 95.2096C191.119 82.7077 188.678 70.3222 183.899 58.7696C179.12 47.2171 172.098 36.7226 163.238 27.9019ZM95.9392 174.282H95.9088C81.7472 174.283 67.8458 170.476 55.6605 163.26L52.7726 161.545L22.8427 169.396L30.8333 140.213L28.9485 137.221C21.0295 124.616 16.8394 110.027 16.8627 95.1401C16.8758 51.5393 52.3514 16.068 95.9739 16.068C106.363 16.0441 116.653 18.0815 126.249 22.0621C135.845 26.0427 144.556 31.8876 151.878 39.2581C159.241 46.5901 165.078 55.3097 169.049 64.9122C173.021 74.5147 175.049 84.8096 175.016 95.2009C174.998 138.802 139.527 174.282 95.9392 174.282ZM139.314 115.06C136.939 113.87 125.253 108.121 123.072 107.33C120.888 106.535 119.307 106.136 117.722 108.52C116.142 110.9 111.586 116.254 110.196 117.839C108.807 119.425 107.421 119.62 105.046 118.43C102.67 117.24 95.0142 114.73 85.9292 106.635C78.8637 100.33 74.091 92.5475 72.7014 90.1677C71.316 87.7836 72.558 86.4981 73.7436 85.3169C74.8119 84.2486 76.1191 82.5376 77.309 81.1479C78.5032 79.7626 78.8941 78.7725 79.6888 77.1874C80.4791 75.5979 80.084 74.2126 79.489 73.0184C78.8984 71.8328 74.1475 60.1292 72.1585 55.3739C70.2303 50.7359 68.2674 51.3656 66.817 51.2918C65.4273 51.2223 63.8422 51.2049 62.2571 51.2049C60.6677 51.2049 58.0968 51.7999 55.9168 54.1797C53.7367 56.5638 47.5961 62.3136 47.5961 74.0128C47.5961 85.7078 56.1078 97.0162 57.3021 98.6056C58.492 100.191 74.065 124.202 97.9108 134.502C103.582 136.952 108.012 138.415 111.464 139.514C117.158 141.321 122.343 141.069 126.438 140.456C131.002 139.77 140.5 134.702 142.48 129.152C144.46 123.598 144.46 118.838 143.87 117.848C143.275 116.858 141.69 116.259 139.31 115.069L139.314 115.06Z" fill="white"/>
</g>
<defs>
<clipPath id="clip0_1_2">
<rect width="192" height="192" fill="white"/>
</clipPath>
</defs>
</svg>
