<svg width="192" height="192" viewBox="0 0 192 192" fill="none" xmlns="http://www.w3.org/2000/svg">
<path d="M174.495 19.0625C174.789 18.3875 174.727 17.6063 174.327 16.9875C173.92 16.375 173.233 16 172.489 16C167.895 16 159.883 16 157.058 16C156.439 16 155.877 16.3687 155.627 16.9375C150.858 27.8 105.902 130.188 97.2705 149.85C97.0205 150.419 96.458 150.788 95.8392 150.788C95.2205 150.788 94.658 150.419 94.408 149.85C85.7767 130.188 40.8205 27.8 36.0517 16.9375C35.8017 16.3687 35.2392 16 34.6205 16C31.7955 16 23.783 16 19.1892 16C18.4455 16 17.758 16.375 17.3517 16.9875C16.9517 17.6063 16.8892 18.3875 17.183 19.0625C26.3267 39.9375 79.258 160.756 85.3642 174.687C85.7142 175.487 86.5017 176 87.3705 176C91.0205 176 100.658 176 104.308 176C105.177 176 105.964 175.487 106.314 174.687C112.414 160.756 165.352 39.9375 174.495 19.0625Z" fill="white"/>
<path d="M97.4577 98.3438C97.1264 98.925 96.5077 99.2812 95.8389 99.2812C95.1702 99.2812 94.5514 98.925 94.2139 98.3438C86.7452 85.4125 55.7639 31.7438 48.2952 18.8125C47.9639 18.2312 47.9639 17.5188 48.2952 16.9375C48.6327 16.3562 49.2514 16 49.9202 16H141.758C142.426 16 143.045 16.3562 143.376 16.9375C143.714 17.5188 143.714 18.2312 143.376 18.8125C135.914 31.7438 104.926 85.4125 97.4577 98.3438Z" fill="url(#paint0_linear_1_2)"/>
<defs>
<linearGradient id="paint0_linear_1_2" x1="95.8382" y1="16" x2="95.8382" y2="99.2812" gradientUnits="userSpaceOnUse">
<stop/>
<stop offset="1" stop-opacity="0"/>
</linearGradient>
</defs>
</svg>
