<svg width="192" height="192" viewBox="0 0 192 192" fill="none" xmlns="http://www.w3.org/2000/svg">
<g clip-path="url(#clip0_1_2)">
<path d="M96 0C42.9785 0 0 42.9785 0 96C0 149.022 42.9785 192 96 192C149.022 192 192 149.022 192 96C192 42.9785 149.022 0 96 0ZM96 152.788C64.6523 152.788 39.2123 127.348 39.2123 96C39.2123 64.6523 64.6523 39.2123 96 39.2123C127.348 39.2123 152.788 64.6523 152.788 96C152.788 127.348 127.348 152.788 96 152.788ZM96 46.1908C68.5292 46.1908 46.1908 68.5292 46.1908 96C46.1908 123.471 68.5292 145.809 96 145.809C123.471 145.809 145.809 123.471 145.809 96C145.809 68.5292 123.471 46.1908 96 46.1908ZM77.4277 124.357V67.6431L126.498 96L77.4277 124.357Z" fill="black"/>
</g>
<defs>
<clipPath id="clip0_1_2">
<rect width="192" height="192" fill="white"/>
</clipPath>
</defs>
</svg>
