<svg width="192" height="192" viewBox="0 0 192 192" fill="none" xmlns="http://www.w3.org/2000/svg">
<g clip-path="url(#clip0_1_2)">
<path d="M76.3329 75.4282C76.3329 60.9926 90.6112 51.985 102.057 59.2225L134.626 79.755C146.072 86.9925 146.072 105.008 134.626 112.245L102.057 132.777C90.6112 140.015 76.3329 131.007 76.3329 116.572V75.4282Z" fill="black" fill-opacity="0.5"/>
<path fill-rule="evenodd" clip-rule="evenodd" d="M96 11.0627C84.8459 11.0627 73.801 13.2597 63.4959 17.5282C53.1909 21.7967 43.8274 28.0531 35.9403 35.9403C28.0531 43.8274 21.7967 53.1909 17.5282 63.4959C13.2597 73.801 11.0627 84.8459 11.0627 96C11.0627 107.154 13.2597 118.199 17.5282 128.504C21.7967 138.809 28.0531 148.173 35.9403 156.06C43.8274 163.947 53.1909 170.203 63.4959 174.472C73.801 178.74 84.8459 180.937 96 180.937C107.154 180.937 118.199 178.74 128.504 174.472C138.809 170.203 148.173 163.947 156.06 156.06C163.947 148.173 170.203 138.809 174.472 128.504C178.74 118.199 180.937 107.154 180.937 96C180.937 84.8459 178.74 73.801 174.472 63.4959C170.203 53.1909 163.947 43.8274 156.06 35.9403C148.173 28.0531 138.809 21.7967 128.504 17.5282C118.199 13.2597 107.154 11.0627 96 11.0627ZM59.2624 7.30756C70.9096 2.48311 83.3931 0 96 0C108.607 0 121.09 2.48311 132.738 7.30756C144.385 12.132 154.968 19.2033 163.882 28.1178C172.797 37.0322 179.868 47.6151 184.692 59.2624C189.517 70.9096 192 83.3931 192 96C192 108.607 189.517 121.09 184.692 132.738C179.868 144.385 172.797 154.968 163.882 163.882C154.968 172.797 144.385 179.868 132.738 184.692C121.09 189.517 108.607 192 96 192C83.3931 192 70.9096 189.517 59.2624 184.692C47.6151 179.868 37.0322 172.797 28.1178 163.882C19.2033 154.968 12.132 144.385 7.30756 132.738C2.48311 121.09 0 108.607 0 96C0 83.3931 2.48311 70.9096 7.30756 59.2624C12.132 47.6151 19.2033 37.0322 28.1178 28.1178C37.0322 19.2033 47.6151 12.132 59.2624 7.30756Z" fill="black"/>
<path d="M48.799 81.6037C48.799 71.4948 58.8685 65.2013 66.9714 70.2361L89.9425 84.6324C98.006 89.6672 98.006 102.333 89.9425 107.368L66.9714 121.764C58.8685 126.799 48.799 120.505 48.799 110.396V81.6037Z" fill="black"/>
</g>
<defs>
<clipPath id="clip0_1_2">
<rect width="192" height="192" fill="white"/>
</clipPath>
</defs>
</svg>
