<svg width="192" height="192" viewBox="0 0 192 192" fill="none" xmlns="http://www.w3.org/2000/svg">
<path d="M189.995 3.675C190.347 2.865 190.272 1.9275 189.792 1.185C189.305 0.45 188.48 0 187.587 0C182.075 0 172.46 0 169.07 0C168.327 0 167.652 0.4425 167.352 1.125C161.63 14.16 107.682 137.025 97.3246 160.62C97.0246 161.303 96.3496 161.745 95.6071 161.745C94.8646 161.745 94.1896 161.303 93.8896 160.62C83.5321 137.025 29.5846 14.16 23.8621 1.125C23.5621 0.4425 22.8871 0 22.1446 0C18.7546 0 9.1396 0 3.6271 0C2.7346 0 1.9096 0.45 1.4221 1.185C0.942096 1.9275 0.867096 2.865 1.2196 3.675C12.1921 28.725 75.7096 173.707 83.0371 190.425C83.4571 191.385 84.4021 192 85.4446 192C89.8246 192 101.39 192 105.77 192C106.812 192 107.757 191.385 108.177 190.425C115.497 173.707 179.022 28.725 189.995 3.675Z" fill="white"/>
<path d="M97.5496 98.8125C97.1521 99.51 96.4096 99.9375 95.6071 99.9375C94.8046 99.9375 94.0621 99.51 93.6571 98.8125C84.6946 83.295 47.5171 18.8925 38.5546 3.375C38.1571 2.6775 38.1571 1.8225 38.5546 1.125C38.9596 0.4275 39.7021 0 40.5046 0H150.71C151.512 0 152.255 0.4275 152.652 1.125C153.057 1.8225 153.057 2.6775 152.652 3.375C143.697 18.8925 106.512 83.295 97.5496 98.8125Z" fill="url(#paint0_linear_1_2)"/>
<defs>
<linearGradient id="paint0_linear_1_2" x1="95.6061" y1="0" x2="95.6061" y2="99.9375" gradientUnits="userSpaceOnUse">
<stop/>
<stop offset="1" stop-opacity="0"/>
</linearGradient>
</defs>
</svg>
