<svg width="192" height="192" viewBox="0 0 192 192" fill="none" xmlns="http://www.w3.org/2000/svg">
<g clip-path="url(#clip0_1_2)">
<path fill-rule="evenodd" clip-rule="evenodd" d="M77.487 0L18.4984 33.7023L56.4087 28.0789L77.487 0Z" fill="white"/>
<path fill-rule="evenodd" clip-rule="evenodd" d="M95.505 2.83085C94.1278 2.60132 92.7124 3.51943 88.0836 6.31202L62.5295 38.5224L19.5695 45.1787C12.1481 50.7257 12.1481 48.8894 12.1481 58.147V97.052V135.957C12.1481 145.215 10.3119 143.378 19.5695 148.925L54.7638 169.277L88.0836 187.792C97.3412 191.503 93.6305 193.339 102.888 187.792L129.36 155.62L171.402 148.925C178.824 143.378 178.824 145.215 178.824 135.957L178.862 97.052V58.1853C178.862 48.9277 180.698 50.7639 171.44 45.217L136.246 24.8273L102.926 6.31202C98.2976 4.47579 96.9204 3.06037 95.505 2.83085ZM44.8176 48.5451C45.5827 48.5834 46.9981 48.8512 49.2551 48.8512H99.4835C105.489 48.8512 105.528 48.8512 103.5 52.8679L79.3998 117.136C77.4105 123.142 77.3723 123.18 83.4165 123.18H105.489C111.495 123.18 109.506 123.18 111.534 127.197L117.578 139.247C119.567 145.253 121.595 145.291 113.561 145.291L49.2551 145.253C43.2491 145.253 43.2109 147.242 45.2384 141.236L71.3663 74.9791C73.3555 70.9623 73.3555 70.9623 69.3388 70.9623H57.2886C53.2719 70.9623 53.2719 70.9623 51.2444 66.9456L45.2384 52.8679C43.976 49.119 43.5169 48.4686 44.8176 48.5451ZM113.523 52.3706C114.02 52.3706 114.518 53.8625 115.55 56.8846L147.684 139.209V137.219C149.674 141.236 147.684 143.225 143.668 143.225H131.617C125.611 143.225 127.601 145.253 125.573 139.209L103.5 85.0018C101.511 80.9851 101.511 80.9851 103.5 76.9683L111.534 56.8846C112.528 53.8625 113.026 52.3706 113.523 52.3706Z" fill="white"/>
<path fill-rule="evenodd" clip-rule="evenodd" d="M170.178 161.664L116.124 192L137.241 165.643L170.178 161.664Z" fill="white"/>
</g>
<defs>
<clipPath id="clip0_1_2">
<rect width="192" height="192" fill="white"/>
</clipPath>
</defs>
</svg>
